<svg width="40" height="38" viewBox="0 0 40 38" fill="none" xmlns="http://www.w3.org/2000/svg">
<path d="M7 9H34.58C35.1388 9.00002 35.6915 9.11714 36.2023 9.34381C36.7131 9.57048 37.1707 9.90167 37.5457 10.316C37.9207 10.7304 38.2047 11.2187 38.3794 11.7496C38.5541 12.2804 38.6156 12.8419 38.56 13.398L37.36 25.398C37.2613 26.385 36.7994 27.3001 36.0639 27.9658C35.3285 28.6314 34.3719 29 33.38 29H14.28C13.3549 29.0004 12.4584 28.6801 11.7429 28.0937C11.0274 27.5073 10.5373 26.6911 10.356 25.784L7 9Z" stroke="#242424" stroke-linejoin="round"/>
<path d="M7 9L5.38 2.514C5.27166 2.08151 5.0219 1.69762 4.67042 1.42331C4.31893 1.149 3.88586 1.00001 3.44 1H1M13 37H17M29 37H33" stroke="#242424" stroke-linecap="round" stroke-linejoin="round"/>
</svg>
