<svg width="84" height="45" viewBox="0 0 84 45" fill="none" xmlns="http://www.w3.org/2000/svg">
<path d="M9.016 27.9998H8.312C8.20533 27.9998 8.11733 27.9758 8.048 27.9278C7.97866 27.8798 7.90666 27.8024 7.832 27.6958L4.112 23.1038C4.03733 23.0078 3.96266 22.9251 3.888 22.8558C3.81866 22.7811 3.73866 22.7224 3.648 22.6798C3.56266 22.6318 3.464 22.5971 3.352 22.5758C3.24 22.5544 3.10933 22.5438 2.96 22.5438H1.496V27.9998H0.671997V16.6798H1.496V21.9038H2.8C2.93333 21.9038 3.05333 21.8958 3.16 21.8798C3.272 21.8638 3.376 21.8371 3.472 21.7998C3.57333 21.7571 3.66933 21.6984 3.76 21.6238C3.85066 21.5491 3.944 21.4531 4.04 21.3358L7.592 16.9358C7.64533 16.8611 7.70933 16.7998 7.784 16.7518C7.85866 16.7038 7.944 16.6798 8.04 16.6798H8.704L4.848 21.4718C4.70933 21.6531 4.56266 21.7971 4.408 21.9038C4.25333 22.0104 4.07466 22.0931 3.872 22.1518C4.112 22.2051 4.312 22.2958 4.472 22.4238C4.63733 22.5464 4.79733 22.7171 4.952 22.9358L9.016 27.9998Z" fill="#9F9F9F"/>
<path d="M19.6424 16.6798V27.9998H18.8184V18.7038C18.8184 18.5331 18.821 18.3598 18.8264 18.1838C18.837 18.0024 18.853 17.8158 18.8744 17.6238C18.7997 17.7891 18.725 17.9411 18.6504 18.0798C18.5757 18.2131 18.501 18.3384 18.4264 18.4558L11.8904 27.7438C11.8477 27.8131 11.7917 27.8744 11.7224 27.9278C11.6584 27.9758 11.5864 27.9998 11.5064 27.9998H10.9064V16.6798H11.7304V25.9758C11.7304 26.1464 11.7277 26.3198 11.7224 26.4958C11.717 26.6718 11.7037 26.8531 11.6824 27.0398C11.7517 26.8798 11.8237 26.7331 11.8984 26.5998C11.973 26.4611 12.0477 26.3331 12.1224 26.2158L18.6664 16.9358C18.709 16.8664 18.7624 16.8078 18.8264 16.7598C18.8904 16.7064 18.9624 16.6798 19.0424 16.6798H19.6424Z" fill="#9F9F9F"/>
<path d="M31.1525 26.0958C31.2058 26.0958 31.2512 26.1144 31.2885 26.1518L31.6085 26.4958C31.3738 26.7464 31.1178 26.9731 30.8405 27.1758C30.5685 27.3731 30.2672 27.5438 29.9365 27.6878C29.6112 27.8264 29.2512 27.9331 28.8565 28.0078C28.4672 28.0878 28.0378 28.1278 27.5685 28.1278C26.7845 28.1278 26.0645 27.9918 25.4085 27.7198C24.7578 27.4424 24.1978 27.0531 23.7285 26.5518C23.2592 26.0451 22.8938 25.4344 22.6325 24.7198C22.3765 24.0051 22.2485 23.2104 22.2485 22.3358C22.2485 21.4771 22.3818 20.6931 22.6485 19.9838C22.9152 19.2744 23.2885 18.6664 23.7685 18.1598C24.2485 17.6478 24.8245 17.2531 25.4965 16.9758C26.1685 16.6931 26.9098 16.5518 27.7205 16.5518C28.4938 16.5518 29.1792 16.6718 29.7765 16.9118C30.3738 17.1518 30.9178 17.4904 31.4085 17.9278L31.1605 18.2878C31.1178 18.3518 31.0512 18.3838 30.9605 18.3838C30.8965 18.3838 30.7925 18.3251 30.6485 18.2078C30.5045 18.0904 30.3045 17.9624 30.0485 17.8238C29.7925 17.6798 29.4725 17.5491 29.0885 17.4318C28.7098 17.3144 28.2538 17.2558 27.7205 17.2558C27.0378 17.2558 26.4112 17.3731 25.8405 17.6078C25.2752 17.8424 24.7872 18.1784 24.3765 18.6158C23.9712 19.0531 23.6538 19.5864 23.4245 20.2158C23.1952 20.8451 23.0805 21.5518 23.0805 22.3358C23.0805 23.1358 23.1952 23.8504 23.4245 24.4798C23.6592 25.1091 23.9792 25.6424 24.3845 26.0798C24.7898 26.5118 25.2672 26.8451 25.8165 27.0798C26.3712 27.3091 26.9685 27.4238 27.6085 27.4238C28.0138 27.4238 28.3738 27.3971 28.6885 27.3438C29.0085 27.2904 29.3018 27.2104 29.5685 27.1038C29.8352 26.9971 30.0832 26.8664 30.3125 26.7118C30.5418 26.5571 30.7685 26.3758 30.9925 26.1678C31.0192 26.1464 31.0458 26.1304 31.0725 26.1198C31.0992 26.1038 31.1258 26.0958 31.1525 26.0958Z" fill="#9F9F9F"/>
<path d="M40.597 27.3198L40.581 27.9998H33.797V16.6798H40.581V17.3598H34.621V21.9358H39.581V22.5998H34.621V27.3198H40.597Z" fill="#9F9F9F"/>
<path d="M51.8142 16.6798V27.9998H50.9902V22.5758H43.9022V27.9998H43.0782V16.6798H43.9022V21.9598H50.9902V16.6798H51.8142Z" fill="#9F9F9F"/>
<path d="M58.6124 27.3438C59.6044 27.3438 60.3457 27.1251 60.8364 26.6878C61.327 26.2451 61.5724 25.6344 61.5724 24.8558C61.5724 24.0611 61.3297 23.4638 60.8444 23.0638C60.359 22.6584 59.6204 22.4558 58.6284 22.4558H55.9804V27.3438H58.6124ZM58.6284 21.7998C59.2577 21.7998 59.807 21.8691 60.2764 22.0078C60.751 22.1411 61.143 22.3384 61.4524 22.5998C61.767 22.8558 62.0017 23.1678 62.1564 23.5358C62.311 23.9038 62.3884 24.3198 62.3884 24.7838C62.3884 25.2798 62.303 25.7278 62.1324 26.1278C61.967 26.5224 61.7244 26.8584 61.4044 27.1358C61.0844 27.4131 60.6897 27.6264 60.2204 27.7758C59.751 27.9251 59.215 27.9998 58.6124 27.9998H55.1564V16.6798H55.9804V21.7998H58.6284Z" fill="#9F9F9F"/>
<path fill-rule="evenodd" clip-rule="evenodd" d="M78.7674 21.8837C78.7674 33.4174 69.4174 42.7674 57.8837 42.7674C46.3499 42.7674 37 33.4174 37 21.8837C37 10.3499 46.3499 1 57.8837 1C69.4174 1 78.7674 10.3499 78.7674 21.8837ZM74.1707 36.5C70.1644 40.9612 64.3518 43.7674 57.8837 43.7674C45.7977 43.7674 36 33.9697 36 21.8837C36 9.79766 45.7977 0 57.8837 0C69.9697 0 79.7674 9.79766 79.7674 21.8837C79.7674 27.0308 77.9903 31.763 75.0163 35.5H81.2045H81.7045V36V39.3321V39.6585L81.4056 39.7898L75.7608 42.2702V43.1548H83.4559V44.1548H75.2608H74.7608V43.6548V41.9437V41.6173L75.0597 41.486L80.7045 39.0056V36.5H74.1707Z" fill="#565656"/>
</svg>
