<svg width="61" height="56" viewBox="0 0 61 56" fill="none" xmlns="http://www.w3.org/2000/svg">
<path fill-rule="evenodd" clip-rule="evenodd" d="M54.621 27.8105C54.621 42.6175 42.6175 54.621 27.8105 54.621C13.0035 54.621 1 42.6175 1 27.8105C1 13.0035 13.0035 1 27.8105 1C42.6175 1 54.621 13.0035 54.621 27.8105ZM48.9831 45.8431C43.8821 51.8266 36.2894 55.621 27.8105 55.621C12.4512 55.621 0 43.1698 0 27.8105C0 12.4512 12.4512 0 27.8105 0C43.1698 0 55.621 12.4512 55.621 27.8105C55.621 34.3745 53.347 40.4073 49.5437 45.1642H58.1388H58.6388V45.6642V49.8987V50.2251L58.34 50.3564L51.0854 53.5441V54.8921H61V55.8921H50.5854H50.0854V55.3921V53.2176V52.8912L50.3842 52.7599L57.6388 49.5722V46.1642H48.9831V45.8431Z" fill="#242424"/>
</svg>
